# xmcd
#
# Track frame offsets:
#	150
#	18057
#	35775
#	50892
#	68210
#	82132
#	96517
#	112635
#	125080
#	141772
#	158245
#	173412
#	188105
#	204907
#	229075
#
# Disc length: 3305 seconds
#
# Revision: 0
# Processed by: cddbd v1.5PL3 Copyright (c) Steve Scherf et al.
# Submitted via: MusicManager 7.0.4.0 
#
DISCID=cb0ce70f
DTITLE=DANE STEVENS - ACROSS THE MILES
DYEAR=1999
DGENRE=country
TTITLE0=ACROSS THE MILES
TTITLE1=LET'S HAVE AN AFFAIR
TTITLE2=HELP ME WITH MY LIFE
TTITLE3=DEAR JOHN, BAD WHISKEY { AND BLUEBERRY WINE }
TTITLE4=THE BALLAD OF JAKE AND ELLIE MAY
TTITLE5=FIDDLE AND THE OLD GUITAR
TTITLE6=MABY
TTITLE7=COWBOY'S YODEL
TTITLE8=SAD SONGS
TTITLE9=I LOVE YOU MORE THAN EVER
TTITLE10=TOO GOOD TO LAST
TTITLE11=POLES APART
TTITLE12=MASSIN' ROUND STUFF
TTITLE13=WHEN I SEE THOSE GREEN HILLS
TTITLE14=I MISS YOU ALREADY
EXTD=
EXTT0=
EXTT1=
EXTT2=
EXTT3=
EXTT4=
EXTT5=
EXTT6=
EXTT7=
EXTT8=
EXTT9=
EXTT10=
EXTT11=
EXTT12=
EXTT13=
EXTT14=
PLAYORDER=
